<svg xmlns="http://www.w3.org/2000/svg" viewBox="0 0 58 58"><defs><style>.cls-1{fill:none;}.cls-2,.cls-3{fill:#588fcc;}.cls-2{fill-opacity:0.35;}</style></defs><g id="Ebene_2" data-name="Ebene 2"><g id="Ebene_1-2" data-name="Ebene 1"><g id="ic_flash_ct" data-name="ic flash ct"><rect id="Rahmen" class="cls-1" width="58" height="58"/><g id="flash_Icon" data-name="flash Icon"><g id="Pfad_4" data-name="Pfad 4"><path class="cls-2" d="M27.48,44.91l-.88-2.47-2.15-6-5.38,1.71-3.94,1.24,2.22-3.48L19.8,32l-4.56-2.67-3-1.74,3.29-1,5.85-1.77-3.56-5.24L15.59,16.3l3.89,1L26,19.06l1.51-3.55L29,12l1.28,3.64L32,20.49l6.71-2.64,3.68-1.45-1.8,3.53-2.53,5,4.55,1.75,3,1.15L42.8,29.37,38,32.11l2.88,5.48,1.73,3.29-3.53-1.17-5.64-1.87-4.25,5.07Z"/><path class="cls-3" d="M28.86,16.1l-2,4.74L19.1,18.78l4.71,6.93L16,28.06l5.9,3.46-3.29,5.16,6.77-2.15L28,41.94l4.91-5.84,6.6,2.19L36,31.52l6.09-3.46L36,25.71l3.29-6.46L31.1,22.46,28.86,16.1m.26-8.28,2.57,7.28,1.21,3.43,5.26-2.07,7.37-2.91-3.6,7.06-1.78,3.5,3,1.16,5.9,2.28-5.51,3.12L40,32.7l2.21,4.19,3.46,6.59-7.06-2.34-4.67-1.55-3.6,4.28-3.37,4L25.19,43l-1.67-4.68-4,1.27L11.64,42l4.44-7,1.62-2.52-3.22-1.89L8.56,27.18l6.57-2L19,24l-2.42-3.55-4.52-6.66,7.78,2.07,5.23,1.39,1-2.35Z"/></g></g></g></g></g></svg>