<svg xmlns="http://www.w3.org/2000/svg" viewBox="0 0 58 58"><defs><style>.cls-1{fill:none;}.cls-2,.cls-3{fill:#ed6a46;}.cls-2{fill-opacity:0.35;}</style></defs><g id="Ebene_2" data-name="Ebene 2"><g id="Ebene_1-2" data-name="Ebene 1"><g id="ic_molo_t" data-name="ic molo t"><rect id="Rahmen-3" class="cls-1" width="58" height="58"/><g id="Gruppe_22" data-name="Gruppe 22"><g id="Pfad_35" data-name="Pfad 35"><path class="cls-2" d="M44.54,46.79H14.09a9.45,9.45,0,0,1-1.44-8.22A6.93,6.93,0,0,1,15,35.23a4.31,4.31,0,0,0,.55,2.22A2.94,2.94,0,0,0,18,39,2.54,2.54,0,0,0,20.07,38c.65-.84,1.25-2.54.39-5.86-.49-3.2-.14-5.62,1.06-7.39a12.84,12.84,0,0,1,4.41-3.54l.21-.13A9.27,9.27,0,0,0,31,13.68a10.46,10.46,0,0,1,1.07,1.37,6.09,6.09,0,0,1,1.08,3.17c0,2-1.09,3.69-2,5.09a12.78,12.78,0,0,0-1.06,1.79,2.5,2.5,0,0,0,.06,2.47A2.82,2.82,0,0,0,32.6,29a3.56,3.56,0,0,0,2.65-1.37,2.09,2.09,0,0,0,.14-.17,3.24,3.24,0,0,1,.47,1.85,6.79,6.79,0,0,1-1.2,2.91,7.41,7.41,0,0,0-1.09,2.39,2.88,2.88,0,0,0,1.25,3,3.89,3.89,0,0,0,2.28.9c1.79,0,2.53-1.64,3.18-3.09a11.76,11.76,0,0,1,1.36-2.49c-.07,2.57,1.37,5,2.54,7,.79,1.34,1.62,2.73,1.55,3.5A6,6,0,0,1,44.54,46.79Z"/><path class="cls-3" d="M43.79,45.39a5.43,5.43,0,0,0,.54-2,2.78,2.78,0,0,0-.3-.83c-.27-.55-.65-1.2-1.06-1.88A27,27,0,0,1,41.09,37c-.72,1.4-1.83,2.91-4,2.91A5.18,5.18,0,0,1,34,38.75h0c-3.37-2.49-1.31-5.93-.53-7.23a12.5,12.5,0,0,0,.77-1.42,4.42,4.42,0,0,1-1.63.32A4.28,4.28,0,0,1,29,28.32c-1.38-2.14,0-4.24,1-5.78.85-1.3,1.81-2.77,1.78-4.29a4,4,0,0,0-.18-1.05,11.59,11.59,0,0,1-4.74,5.07l-.21.12a11.79,11.79,0,0,0-4,3.13c-1,1.45-1.26,3.52-.84,6.33.78,3.06.55,5.42-.66,7A4,4,0,0,1,18,40.43a4.32,4.32,0,0,1-3.7-2.24A6.71,6.71,0,0,0,14,39a7.84,7.84,0,0,0,.88,6.38H43.79m1.32,2.8H13.38c-4.57-5.91-2.74-13.77,3.81-15.61-1.73,3-.41,5.05.83,5.05,1.05,0,2.05-1.5,1.07-5.22C17.8,24.18,21.86,22,25.42,19.86s5.48-6.09,3.3-10.06C41,18.7,30,24.63,31.35,26.81a1.45,1.45,0,0,0,1.25.8c1.24,0,2.53-1.81,2.38-2.87,6.22,6-2.57,9.35.68,11.75a2.57,2.57,0,0,0,1.44.63c2.22,0,1.7-6.29,7.23-7.34-4.14,5,3.08,10.41,2.8,13.77S45.11,48.19,45.11,48.19Z"/></g><path id="Pfad_36" data-name="Pfad 36" class="cls-3" d="M15.73,19.7c1,3.52-6.25,3.73-1.17,10.06C16.41,25.86,20.1,25,15.73,19.7Z"/></g></g></g></g></svg>