<?xml version="1.0" encoding="utf-8"?>
<!-- Generator: Adobe Illustrator 24.2.1, SVG Export Plug-In . SVG Version: 6.00 Build 0)  -->
<svg version="1.1" id="Ebene_1" xmlns="http://www.w3.org/2000/svg" xmlns:xlink="http://www.w3.org/1999/xlink" x="0px" y="0px"
	 viewBox="0 0 46 46" style="enable-background:new 0 0 46 46;" xml:space="preserve">
<style type="text/css">
	.st0{fill:#588FCC;}
	.st1{fill:#FFFFFF;}
</style>
<path id="Rechteck_2" class="st0" d="M23,0L23,0c12.7,0,23,10.3,23,23l0,0c0,12.7-10.3,23-23,23l0,0C10.3,46,0,35.7,0,23l0,0
	C0,10.3,10.3,0,23,0z"/>
<path class="st1" d="M25.8,23l6.8-6.8c0.8-0.8,0.8-2,0-2.8c-0.8-0.8-2-0.8-2.8,0L23,20.2l-6.8-6.8c-0.8-0.8-2-0.8-2.8,0
	c-0.8,0.8-0.8,2,0,2.8l6.8,6.8l-6.8,6.8c-0.8,0.8-0.8,2,0,2.8c0.4,0.4,0.9,0.6,1.4,0.6c0.5,0,1-0.2,1.4-0.6l6.8-6.8l6.8,6.8
	c0.4,0.4,0.9,0.6,1.4,0.6s1-0.2,1.4-0.6c0.8-0.8,0.8-2,0-2.8L25.8,23z"/>
</svg>
